<svg xmlns="http://www.w3.org/2000/svg" width="26.585" height="24.813" viewBox="0 0 26.585 24.813">
  <g id="Layer_2" transform="translate(-2 -2.4)">
    <path id="Path_9" data-name="Path 9" d="M20.033,2.4a8.585,8.585,0,0,0-4.741,1.44A8.545,8.545,0,0,0,2,10.951a8.384,8.384,0,0,0,3.323,6.735l9.194,9.194a1.113,1.113,0,0,0,.775.332,1.075,1.075,0,0,0,.775-.332L25.129,17.8a8.469,8.469,0,0,0,3.456-6.846A8.557,8.557,0,0,0,20.033,2.4Zm3.655,13.736-8.4,8.4L6.763,16.025A6.332,6.332,0,0,1,10.551,4.615a6.37,6.37,0,0,1,4.032,1.44,1.133,1.133,0,0,0,1.418,0,6.343,6.343,0,1,1,7.687,10.08Z" transform="translate(0)"/>
  </g>
</svg>
