<svg id="Symbols" xmlns="http://www.w3.org/2000/svg" width="25.062" height="19.493" viewBox="0 0 25.062 19.493">
  <g id="icon-_-social-_-twitter-_-dark" data-name="icon-/-social-/-twitter-/-dark" transform="translate(0 0)">
    <path id="Fill-1" d="M32.062,11.307a10.655,10.655,0,0,1-2.953.775A4.98,4.98,0,0,0,31.37,9.36,10.6,10.6,0,0,1,28.1,10.554,5.246,5.246,0,0,0,24.352,9a5.035,5.035,0,0,0-5.142,4.921,4.738,4.738,0,0,0,.133,1.121A14.824,14.824,0,0,1,8.745,9.9a4.741,4.741,0,0,0-.7,2.474,4.868,4.868,0,0,0,2.287,4.1,5.291,5.291,0,0,1-2.328-.615c0,.021,0,.041,0,.062a4.983,4.983,0,0,0,4.125,4.825,5.4,5.4,0,0,1-2.322.085,5.123,5.123,0,0,0,4.8,3.417,10.614,10.614,0,0,1-6.386,2.106A11.038,11.038,0,0,1,7,26.282a15.035,15.035,0,0,0,7.882,2.211,14.207,14.207,0,0,0,14.629-14c0-.214,0-.426-.015-.637a10.193,10.193,0,0,0,2.566-2.547" transform="translate(-7 -9)" fill="#fff" fill-rule="evenodd"/>
  </g>
</svg>
