<svg id="Symbols" xmlns="http://www.w3.org/2000/svg" width="24" height="24" viewBox="0 0 24 24">
  <g id="icon-_-social-_-instagram-_-dark" data-name="icon-/-social-/-instagram-/-dark" transform="translate(0 0)">
    <path id="Combined-Shape" d="M21.148,7c.783,0,1.279.008,1.722.023l.262.01c.259.011.517.025.824.043a8.072,8.072,0,0,1,2.9.542,6.225,6.225,0,0,1,3.523,3.523,9.931,9.931,0,0,1,.542,2.9c.059.971.073,1.45.076,3.051v.849q0,.158,0,.327v1.456q0,.169,0,.327V20.9c0,1.6-.017,2.08-.076,3.051a8.073,8.073,0,0,1-.542,2.9,6.226,6.226,0,0,1-3.523,3.523,9.932,9.932,0,0,1-2.9.542c-.971.059-1.45.073-3.051.076H17.1c-1.6,0-2.08-.017-3.051-.076a8.072,8.072,0,0,1-2.9-.542,6.225,6.225,0,0,1-3.523-3.523,9.933,9.933,0,0,1-.542-2.9c-.019-.307-.033-.564-.043-.823l-.01-.262C7.009,22.426,7,21.931,7,21.148v-4.3c0-.94.011-1.466.032-1.984l.012-.261c.009-.176.019-.358.032-.563a8.071,8.071,0,0,1,.542-2.9,6.225,6.225,0,0,1,3.523-3.523,9.932,9.932,0,0,1,2.9-.542c.2-.012.387-.023.563-.032l.261-.012C15.387,7.012,15.913,7,16.852,7Zm-.529,2.167h-3.67c-1.429,0-1.872.01-2.749.038a7.473,7.473,0,0,0-2.245.426,3.319,3.319,0,0,0-1.394.89,4.083,4.083,0,0,0-.89,1.394,5.769,5.769,0,0,0-.426,2.245c-.062.991-.074,1.437-.077,3.221v3.495q0,.124,0,.239v.429c0,1.062.012,1.515.037,2.333a7.473,7.473,0,0,0,.426,2.245,3.318,3.318,0,0,0,.89,1.394,4.083,4.083,0,0,0,1.394.89,5.77,5.77,0,0,0,2.245.426c.248.016.461.028.67.038l.251.011c.462.018.959.025,1.8.027h2.487c2.87,0,3.241-.04,4.467-.077a7.474,7.474,0,0,0,2.245-.426,3.319,3.319,0,0,0,1.394-.89,4.082,4.082,0,0,0,.89-1.394,5.765,5.765,0,0,0,.426-2.245c.015-.248.028-.461.038-.671l.011-.25c.018-.462.025-.959.027-1.8v-.5q0-.134,0-.278V18.667c0-2.033-.021-2.812-.045-3.529l-.009-.253c-.007-.211-.015-.43-.023-.685a7.471,7.471,0,0,0-.426-2.245,3.319,3.319,0,0,0-.89-1.394,4.083,4.083,0,0,0-1.394-.89,5.768,5.768,0,0,0-2.245-.426C22.848,9.182,22.4,9.17,20.618,9.168ZM19,12.845A6.155,6.155,0,1,1,12.845,19,6.146,6.146,0,0,1,19,12.845Zm0,2.168A3.987,3.987,0,1,0,22.987,19,3.982,3.982,0,0,0,19,15.013Zm6.388-3.833a1.432,1.432,0,1,1-1.432,1.432A1.432,1.432,0,0,1,25.388,11.18Z" transform="translate(-7.001 -7.001)" fill="#fff" fill-rule="evenodd"/>
  </g>
</svg>
