<svg id="Symbols" xmlns="http://www.w3.org/2000/svg" width="27.844" height="19.491" viewBox="0 0 27.844 19.491">
  <g id="icon-_-social-_-youtube-_-dark" data-name="icon-/-social-/-youtube-/-dark" transform="translate(0 0)">
    <path id="Combined-Shape" d="M20.411,9c.881,0,2.832.023,4.842.094l.71.027a29.646,29.646,0,0,1,4.839.459,3.488,3.488,0,0,1,2.462,2.462,34.07,34.07,0,0,1,.58,6.477v.21h0v.24a34.071,34.071,0,0,1-.58,6.477A3.488,3.488,0,0,1,30.8,27.91c-1.861.5-8.525.57-10.391.58h-.977c-1.866-.01-8.53-.081-10.391-.58A3.488,3.488,0,0,1,6.58,25.448,33.359,33.359,0,0,1,6,19.091V18.4a33.357,33.357,0,0,1,.579-6.357A3.487,3.487,0,0,1,9.042,9.581a29.645,29.645,0,0,1,4.839-.459l.71-.027c2.01-.071,3.961-.089,4.842-.094Zm-3.273,5.568v8.354L24.1,18.745Z" transform="translate(-6.001 -9.001)" fill="#fff" fill-rule="evenodd"/>
  </g>
</svg>
